<svg viewBox="0 0 626.19 165.56" xmlns="http://www.w3.org/2000/svg" xmlns:xlink="http://www.w3.org/1999/xlink"><linearGradient id="a" gradientUnits="userSpaceOnUse" x1="-119.49" x2="590.46" y1="9.89" y2="18.82"><stop offset="0" stop-color="#00ff97"/><stop offset=".31" stop-color="#00daa8"/><stop offset="1" stop-color="#007ed4"/></linearGradient><linearGradient id="b" x1="-119.49" x2="590.47" xlink:href="#a" y1="9.49" y2="18.42"/><linearGradient id="c" x1="-120.02" x2="589.93" xlink:href="#a" y1="52.2" y2="61.13"/><linearGradient id="d" x1="-120.01" x2="589.95" xlink:href="#a" y1="50.84" y2="59.77"/><linearGradient id="e" x1="-119.88" x2="590.07" xlink:href="#a" y1="41.05" y2="49.98"/><linearGradient id="f" x1="-120.13" x2="589.83" xlink:href="#a" y1="60.51" y2="69.44"/><linearGradient id="g" x1="-119.99" x2="589.96" xlink:href="#a" y1="49.83" y2="58.76"/><linearGradient id="h" x1="-120.43" x2="589.52" xlink:href="#a" y1="84.54" y2="93.47"/><linearGradient id="i" x1="-119.94" x2="590.01" xlink:href="#a" y1="45.72" y2="54.65"/><path d="m10.5 1h-10.5v21h10.5a10.41 10.41 0 0 0 7.41-3.08q.32-.32.6-.66a10.35 10.35 0 0 0 2.49-6.81 10.49 10.49 0 0 0 -10.5-10.45zm0 17.24h-6.76v-13.53h6.76a6.75 6.75 0 1 1 0 13.5z" fill="url(#a)"/><path d="m41.26 16.29a1.93 1.93 0 0 1 -1.93 1.92h-9.66a1.93 1.93 0 0 1 -1.93-1.92v-3.94h-3.74v3.94a5.66 5.66 0 0 0 5.67 5.71h9.66a5.66 5.66 0 0 0 5.67-5.71v-15.29h-3.74z" fill="url(#b)"/><path d="m126.36.13h-44.58a29.67 29.67 0 0 0 -29.63 29.7v.58a29.29 29.29 0 0 0 5.29 16.84 25.68 25.68 0 0 0 3.85 4.57 29.09 29.09 0 0 0 20.49 8.29h39.49a15.14 15.14 0 1 1 0 30.28h-34.4a15.15 15.15 0 0 1 -15.14-15.14h-19.58a34.7 34.7 0 0 0 34.72 34.75h34.4a34.7 34.7 0 0 0 27-56.65 9.57 9.57 0 0 0 -1.3-1.5 34.53 34.53 0 0 0 -25.65-11.36h-39.54a10.05 10.05 0 0 1 -10-10v-.58a10.05 10.05 0 0 1 10-10h44.58a10.11 10.11 0 0 1 10.11 10v.58h19.58v-.58a29.72 29.72 0 0 0 -29.69-29.78z" fill="url(#c)"/><path d="m219.61 71.27 12.33-15.99 27.35-35.44 15.2-19.64v-.07h-24.67l-.06.07h-84.98v19.64h69.84l-15.01 19.45-12.4 15.99-27.02 35.05-15.15 19.58-.13.19h24.74l.13-.19h84.91v-19.58h-69.77z" fill="url(#d)"/><path d="m395.18 62.09v-17.58h2.15a3.5 3.5 0 0 0 3.5-3.5v-16.89a3.5 3.5 0 0 0 -3.5-3.5h-2.15v-18.49a2 2 0 0 0 -2-2h-15.58a2 2 0 0 0 -2 2v18.49h-2.15a3.5 3.5 0 0 0 -3.5 3.5v16.88a3.5 3.5 0 0 0 3.5 3.5h2.15v48.19a2 2 0 0 0 3.78.9l1.62-3.17 14-27.42a2 2 0 0 0 .18-.91z" fill="url(#e)"/><path d="m450.7.13-34.8 67.56-33.98 66.7h22l12.41-24.35 10.41-19.65 23.96-47.05 23.95 47.05 10.05 19.65h21.99l-9.98-19.65z" fill="url(#f)"/><path d="m312.59 44.51h-2.15v-42.51a1.85 1.85 0 0 0 -1.85-1.87h-15.87a1.85 1.85 0 0 0 -1.85 1.87v42.51h-2.15a3.51 3.51 0 0 0 -3.51 3.5v16.89a3.51 3.51 0 0 0 3.51 3.5h2.15v39.85a1.85 1.85 0 0 0 1.85 1.85h15.87a1.85 1.85 0 0 0 1.85-1.85v-39.85h2.15a3.51 3.51 0 0 0 3.51-3.5v-16.9a3.51 3.51 0 0 0 -3.51-3.49z" fill="url(#g)"/><path d="m355 32.56h-2.15v-15.34a2 2 0 0 0 -2-2h-15.62a2 2 0 0 0 -2 2v15.34h-2.15a3.51 3.51 0 0 0 -3.5 3.51v16.93a3.5 3.5 0 0 0 3.5 3.5h2.15v104.1a5 5 0 0 0 9.46 2.27l9.9-19.43a1.91 1.91 0 0 0 .22-.91v-86h2.19a3.5 3.5 0 0 0 3.5-3.5v-16.96a3.51 3.51 0 0 0 -3.5-3.51z" fill="url(#h)"/><path d="m626.19.07h-29.05l-30.67 28.06-14.56 13.31-16.12 14.75v-56.19h-19.57v101.23l19.57-18.12v-.35l27.74-25.32 37.92 52.4h24.22l-47.65-65.72z" fill="url(#i)"/></svg>